<svg width="308" height="96" viewBox="0 0 308 96" fill="none" xmlns="http://www.w3.org/2000/svg">
<path d="M0 63.5767L27.2381 61.8704C27.828 66.2942 29.0287 69.6648 30.8404 71.982C33.7896 75.7317 38.0028 77.6066 43.4799 77.6066C47.5667 77.6066 50.7055 76.6586 52.8963 74.7627C55.1293 72.8246 56.2458 70.5917 56.2458 68.0638C56.2458 65.6623 55.1925 63.5135 53.0859 61.6176C50.9794 59.7217 46.0921 57.9311 38.4241 56.2458C25.8689 53.423 16.9159 49.6733 11.5652 44.9967C6.17229 40.32 3.47586 34.3584 3.47586 27.1117C3.47586 22.3509 4.84515 17.8638 7.58371 13.6507C10.3644 9.39537 14.5144 6.06696 20.0336 3.66545C25.595 1.22182 33.1998 0 42.8479 0C54.6869 0 63.7031 2.21191 69.8965 6.63574C76.132 11.0174 79.8396 18.0113 81.0193 27.6173L54.0339 29.1973C53.3177 25.0262 51.8009 21.9927 49.4837 20.0968C47.2086 18.2009 44.0487 17.2529 40.004 17.2529C36.6756 17.2529 34.1688 17.9692 32.4835 19.4016C30.7983 20.792 29.9556 22.4983 29.9556 24.5206C29.9556 25.9953 30.6508 27.3224 32.0412 28.5021C33.3894 29.7239 36.5914 30.8615 41.6472 31.9148C54.1603 34.6112 63.1133 37.3497 68.5061 40.1304C73.9411 42.869 77.8804 46.2817 80.3241 50.3684C82.8099 54.4552 84.0527 59.0265 84.0527 64.0823C84.0527 70.0229 82.4096 75.5 79.1233 80.5137C75.8371 85.5273 71.2447 89.3403 65.3463 91.9524C59.4478 94.5225 52.0116 95.8075 43.0375 95.8075C27.2803 95.8075 16.3682 92.774 10.3012 86.707C4.23424 80.6401 0.800502 72.93 0 63.5767Z" fill="white"/>
<path d="M93.6588 60.8592C93.6588 50.6212 97.1136 42.1949 104.023 35.5802C110.933 28.9234 120.265 25.595 132.02 25.595C145.46 25.595 155.613 29.4922 162.481 37.2866C168 43.5642 170.76 51.2953 170.76 60.48C170.76 70.8023 167.326 79.2708 160.459 85.8855C153.633 92.458 144.175 95.7443 132.083 95.7443C121.297 95.7443 112.576 93.0057 105.919 87.5286C97.7455 80.7454 93.6588 71.8556 93.6588 60.8592ZM119.443 60.796C119.443 66.7787 120.644 71.2026 123.046 74.0675C125.489 76.9325 128.544 78.365 132.209 78.365C135.917 78.365 138.95 76.9535 141.31 74.1307C143.711 71.3079 144.912 66.7787 144.912 60.5432C144.912 54.7291 143.711 50.4106 141.31 47.5878C138.908 44.7228 135.938 43.2903 132.399 43.2903C128.649 43.2903 125.552 44.7439 123.109 47.6509C120.665 50.5159 119.443 54.8976 119.443 60.796Z" fill="white"/>
<path d="M211.775 27.1117H224.035V45.9446H211.775V94.2275H185.99V45.9446H176.384V27.1117H185.99V24.0783C185.99 21.3397 186.285 18.3273 186.875 15.041C187.465 11.7547 188.56 9.07938 190.161 7.01493C191.805 4.90834 194.08 3.22307 196.987 1.95912C199.936 0.653039 204.233 0 209.879 0C214.387 0 220.939 0.526645 229.533 1.57994L226.69 17.1265C223.614 16.621 221.128 16.3682 219.232 16.3682C216.915 16.3682 215.251 16.7684 214.24 17.5689C213.229 18.3273 212.512 19.5491 212.091 21.2344C211.88 22.1613 211.775 24.1204 211.775 27.1117Z" fill="white"/>
<path d="M257.024 48.8517L232.441 46.2606C233.367 41.9632 234.695 38.5926 236.422 36.149C238.192 33.6632 240.719 31.5145 244.006 29.7028C246.365 28.3968 249.609 27.3856 253.738 26.6694C257.867 25.9531 262.333 25.595 267.136 25.595C274.846 25.595 281.039 26.0374 285.716 26.9221C290.393 27.7648 294.29 29.5554 297.408 32.2939C299.599 34.1899 301.326 36.8863 302.59 40.3832C303.854 43.838 304.486 47.1454 304.486 50.3052V79.9449C304.486 83.1048 304.675 85.5905 305.055 87.4022C305.476 89.1717 306.361 91.4468 307.709 94.2275H283.567C282.598 92.5001 281.966 91.1941 281.671 90.3093C281.377 89.3824 281.082 87.9499 280.787 86.0119C277.416 89.256 274.067 91.5732 270.738 92.9636C266.188 94.8174 260.901 95.7443 254.876 95.7443C246.871 95.7443 240.783 93.8905 236.612 90.1829C232.483 86.4753 230.418 81.904 230.418 76.469C230.418 71.3711 231.914 67.179 234.905 63.8927C237.897 60.6064 243.416 58.1628 251.463 56.5618C261.111 54.6237 267.368 53.2755 270.233 52.5172C273.098 51.7167 276.131 50.6844 279.333 49.4205C279.333 46.2606 278.68 44.0487 277.374 42.7847C276.068 41.5208 273.772 40.8888 270.486 40.8888C266.272 40.8888 263.112 41.5629 261.006 42.9111C259.363 43.9644 258.036 45.9446 257.024 48.8517ZM279.333 62.376C275.794 63.6399 272.108 64.7564 268.274 65.7254C263.049 67.1158 259.742 68.4851 258.352 69.8333C256.919 71.2236 256.203 72.8036 256.203 74.5731C256.203 76.5954 256.898 78.2596 258.288 79.5657C259.721 80.8297 261.806 81.4616 264.545 81.4616C267.41 81.4616 270.064 80.7665 272.508 79.3761C274.994 77.9858 276.742 76.3005 277.753 74.3203C278.806 72.298 279.333 69.6858 279.333 66.4838V62.376Z" fill="white"/>
</svg>
